<mxfile host="app.diagrams.net" modified="2024-06-14T09:25:33.418Z" agent="Mozilla/5.0 (Windows NT 10.0; Win64; x64) AppleWebKit/537.36 (KHTML, like Gecko) Chrome/125.0.0.0 Safari/537.36 Edg/125.0.0.0" version="24.0.6" etag="8PjzqH_UgAeJ_9fFG58v" type="github">
  <diagram name="第 1 页" id="ctkEGTXYDOar4P8N3B9T">
    <mxGraphModel>
      <root>
        <mxCell id="0" />
        <mxCell id="1" parent="0" />
      </root>
    </mxGraphModel>
  </diagram>
</mxfile>
